# xmcd
#
# Track frame offsets:
#	150
#	19048
#	31833
#	37747
#	56917
#	80830
#	85994
#	89075
#	94202
#	104691
#	110566
#	114613
#	119646
#	132488
#	141713
#	155145
#	164989
#	175637
#	181128
#	191364
#	195384
#	201259
#	209019
#	223164
#	235095
#	251663
#	265071
#	273048
#	282726
#	301806
#
# Disc length: 4143 seconds
#
# Revision: 1
# Processed by: cddbd v1.4PL0 Copyright (c) Steve Scherf et al.
# Submitted via: AudioConverter v4.05 Copyright (c) Dennis Rebentrost
#
DISCID=d1102d1e
DTITLE=Umetnici - Film "Zona Zamfirova"
DYEAR=1900
DGENRE=
TTITLE0=Zona Zamfirova
TTITLE1=Pobegulja
TTITLE2=Stanka mi bolna
TTITLE3=Zona(instrumental)
TTITLE4=Nane(instrumental)
TTITLE5=Stepenice(instrumental)
TTITLE6=Premenjuvanje
TTITLE7=Pogledi
TTITLE8=Zonina senja
TTITLE9=Kradja Mlade
TTITLE10=Ukor
TTITLE11=Crkva
TTITLE12=Udvaranje
TTITLE13=Duj,Duj(kolo)
TTITLE14=Slavuj pile(kolo)
TTITLE15=Svrljiska Rumenka
TTITLE16=Fatise(kolo)
TTITLE17=Sareno oro
TTITLE18=Moja je Lena
TTITLE19=Leskovacki cocek
TTITLE20=Jelke Tamnicarke
TTITLE21=Kaleino Oro
TTITLE22=Kad mlada daje
TTITLE23=Srdjan cocek
TTITLE24=Petlovi 1
TTITLE25=Petlovi 2
TTITLE26=Voda studena
TTITLE27=Puce puska
TTITLE28=Ne goni konja
TTITLE29=Intro
EXTD=
EXTT0=
EXTT1=
EXTT2=
EXTT3=
EXTT4=
EXTT5=
EXTT6=
EXTT7=
EXTT8=
EXTT9=
EXTT10=
EXTT11=
EXTT12=
EXTT13=
EXTT14=
EXTT15=
EXTT16=
EXTT17=
EXTT18=
EXTT19=
EXTT20=
EXTT21=
EXTT22=
EXTT23=
EXTT24=
EXTT25=
EXTT26=
EXTT27=
EXTT28=
EXTT29=
PLAYORDER=
